<svg xmlns="http://www.w3.org/2000/svg" xml:space="preserve" width="1500" height="198" data-id="lg_FinKTXNh8tw4qgcvNm" data-version="1" viewBox="0 0 1500 198"><g data-padding="20"><g transform="translate(10 3.548)scale(.96416)"><rect width="125.454" height="131.08" x="524.128" y="-65.886" fill="none" rx="0" ry="0" transform="matrix(.83 0 0 .83 343.77 63)"/><path fill="#ff851b" d="M824.974 92.542h-13.288v-30.81h-13.289v30.81H785.11V51.333q0-8.184-1.104-11.413-1.104-3.22-4.673-7.843l11.554-8.093q3.087 2.026 5.295 7.462 2.216 5.445 2.216 13.147v5.586h13.29V25.146h13.287Zm9.155-30.9V25.153h13.29v37.45q0 5.395.621 8.134.623 2.748 2.84 5.969 2.215 3.227 3.178 3.227t3.18-3.228q2.215-3.22 2.837-5.968.623-2.739.623-8.133V51.342q0-8.093-1.104-11.263-1.104-3.179-4.673-7.802l11.554-8.284q3.087 2.026 5.295 7.853 2.216 5.826 2.216 13.91v15.886q0 7.512-1.444 12.326t-8.234 12.275q-6.78 7.463-10.25 7.463t-10.25-7.463q-6.79-7.46-8.234-12.275-1.445-4.814-1.445-12.326"/><rect width="591.948" height="131.08" x="290.881" y="-65.886" fill="none" rx="0" ry="0" transform="matrix(.83 0 0 .83 292.406 124.6)"/><path fill="#ff4136" d="M580.03 154.142h-13.29v-30.808h-13.288v30.81h-13.289v-41.21q0-8.183-1.104-11.404-1.104-3.23-4.673-7.853l11.554-8.084q3.088 2.017 5.295 7.462 2.216 5.436 2.216 13.14v5.585h13.29V86.747h13.287Zm8.656-14.433v-37.45h12.708v33.308q0 4.914 1.153 7.611 1.154 2.69 3.66 4.716l-10.59 7.411q-6.93-5.486-6.93-15.596m6.59-57.576q1.013 0 4.673 3.129t3.66 4.24q0 1.105-3.71 4.284-3.7 3.179-4.714 3.179-1.012 0-4.673-3.13t-3.66-4.24q0-1.104 3.71-4.283t4.714-3.18m48.197 56.416q0 2.98-7.412 9.869-7.412 6.88-11.022 6.88t-8.956-3.56-7.943-8.375l9.92-6.84q4.813 6.74 7.03 6.74 1.634 0 4.041-1.635t2.407-3.08q0-.39-2.316-1.684-2.307-1.303-5.627-3.278-3.32-1.968-6.599-4.424-3.27-2.457-5.586-6.018-2.307-3.56-2.307-7.22t6.55-9.247 10.06-5.586q3.51 0 8.854 3.57 5.346 3.56 7.944 8.374l-9.919 6.83q-4.814-6.74-7.022-6.74-1.162 0-2.847 1.304t-1.685 2.358q0 1.062 3.52 3.278 3.51 2.208 7.702 4.573 4.183 2.358 7.702 6.159 3.511 3.8 3.511 7.752m31.673-26.186h-10.79v21.273q0 4.523 3.088 8.283 3.08 3.752 8.466 5.967l-10.59 7.413q-5.778-2.699-9.72-7.462-3.95-4.764-3.95-10.06v-25.414h-4.815v-7.22l4.814-1.163q-.19-4.715-1.154-7.462-.962-2.739-3.66-5.337l10.59-7.42q6.931 5.494 6.931 15.604v2.888h10.79Zm21.705 30.42q1.494 1.443 2.365 1.443.864 0 2.358-1.444t2.166-2.599q1.253-2.115 1.253-11.934 0-9.827-1.253-12.035-.672-1.162-2.166-2.606-1.494-1.445-2.358-1.445-.87 0-2.365 1.445-1.486 1.444-2.166 2.606-1.245 2.116-1.245 11.935t1.245 12.035q.68 1.154 2.166 2.598m11.072 7.8q-5.918 4.716-8.707 4.716-2.797 0-8.715-4.715-5.926-4.724-7.27-7.03-2.026-3.56-2.026-15.405t2.026-15.305q1.344-2.316 7.27-7.03 5.918-4.723 8.715-4.723 2.79 0 8.707 4.723 5.926 4.714 7.27 7.03 2.026 3.46 2.026 15.305t-2.025 15.405q-1.345 2.307-7.27 7.03m16.034-10.873v-37.45h12.708v33.308q0 4.914 1.154 7.611 1.153 2.69 3.66 4.716l-10.59 7.411q-6.93-5.486-6.93-15.596m6.59-57.576q1.012 0 4.673 3.129t3.66 4.24q0 1.105-3.71 4.284-3.702 3.179-4.714 3.179t-4.673-3.13-3.66-4.24q0-1.104 3.71-4.283t4.714-3.18m29.898 35.05v36.969h-12.71v-33.217q0-4.913-1.203-7.652-1.204-2.748-3.61-4.765l10.59-7.42q3.47 2.889 5.295 6.74 7.122-6.74 10.01-6.74 1.926 0 5.877 3.57 3.95 3.56 4.623 7.793l-10.3 7.412q-.1-2.308-1.113-4.524t-1.776-2.216q-1.643 0-5.685 4.05m56.805 10.866v3.47h-23.298q0 5.777 1.444 9.146.481 1.154 1.735 2.358 1.253 1.202 2.597 1.202t3.37-2.306q2.025-2.317 3.18-5.587l9.918 7.03q-2.607 4.815-7.943 8.375-5.346 3.56-8.624 3.56-3.27 0-9.479-5.103-6.208-5.097-7.56-7.944-1.346-2.839-1.346-14.052 0-11.22 1.345-14.06 1.353-2.839 7.561-7.943 6.21-5.105 9.097-5.105t9.097 5.105 7.561 7.943q1.345 2.84 1.345 13.91m-13.33-12.077q-.722-1.303-2.216-2.556t-2.797-1.253q-1.295 0-2.93 2.556-1.644 2.548-2.025 7.653h10.972q-.282-5.105-1.004-6.4m45.584 7.272V86.755h13.288v37.45q0 5.394.63 8.143.623 2.738 2.84 5.966 2.207 3.22 3.178 3.22.955 0 3.17-3.22 2.217-3.227 2.848-5.966.622-2.748.622-8.144v-11.261q0-8.085-1.112-11.264-1.104-3.179-4.665-7.802l11.554-8.275q3.08 2.017 5.295 7.844t2.216 13.91v15.887q0 7.511-1.444 12.325t-8.233 12.276-10.25 7.462q-3.47 0-10.26-7.462t-8.233-12.276q-1.445-4.814-1.445-12.325m47.085 16.467v-37.45h12.708v33.308q0 4.914 1.153 7.611 1.154 2.69 3.66 4.715l-10.59 7.412q-6.93-5.487-6.93-15.596m6.59-57.577q1.013 0 4.673 3.13t3.66 4.24q0 1.104-3.71 4.283-3.7 3.18-4.714 3.18-1.012 0-4.673-3.13t-3.66-4.24q0-1.105 3.71-4.284t4.715-3.18m51.368 34.561v8.275q0 11.554-1.253 14.351-1.253 2.79-7.752 9.387-6.5 6.59-9.578 6.59-3.08 0-9.628-6.59-6.55-6.598-7.753-9.487-1.203-2.888-1.203-14.25v-22.718h12.706v22.717q0 10.11.722 11.894.722 1.776 2.407 3.61 1.693 1.827 2.748 1.827 1.062 0 2.747-1.826 1.685-1.835 2.407-3.61.722-1.785.722-11.895v-4.14q0-4.907-1.162-7.604-1.154-2.698-3.652-4.715l10.59-7.42q6.931 5.495 6.931 15.604m42.173 11.355v3.47h-23.307q0 5.776 1.444 9.146.482 1.154 1.735 2.358 1.253 1.202 2.598 1.202 1.353 0 3.37-2.306 2.025-2.317 3.18-5.587l9.917 7.03q-2.598 4.815-7.943 8.375t-8.615 3.56q-3.279 0-9.487-5.103-6.209-5.097-7.553-7.944-1.353-2.839-1.353-14.052 0-11.22 1.353-14.06 1.344-2.839 7.553-7.943 6.208-5.105 9.097-5.105t9.105 5.105q6.208 5.104 7.553 7.943 1.353 2.84 1.353 13.91m-13.339-12.077q-.722-1.303-2.216-2.556t-2.788-1.253q-1.303 0-2.939 2.556-1.635 2.548-2.025 7.653h10.981q-.29-5.105-1.012-6.4"/><rect width="672" height="45.2" x="250.855" y="-22.946" fill="none" rx="0" ry="0" transform="matrix(.83 0 0 .83 280.42 179.665)"/><path fill="#ff4136" d="M492.563 189.396h-2.39v-20.683h6.64q2.324 0 3.751.797 1.428.796 2.11 2.108.68 1.31.68 2.938 0 1.194-.366 2.223t-1.145 1.826-1.976 1.23-2.888.43h-4.416Zm0-18.492v7.304h4.15q1.527 0 2.457-.448t1.361-1.262q.432-.813.432-1.876 0-1.03-.432-1.86-.43-.83-1.36-1.344t-2.425-.514Zm20.551 18.758q-2.058 0-3.635-1.013t-2.474-2.788q-.896-1.777-.896-4.067 0-2.325.896-4.1.897-1.777 2.474-2.79 1.577-1.012 3.635-1.012t3.635 1.013q1.577 1.012 2.474 2.788.896 1.776.896 4.1 0 2.29-.896 4.068-.897 1.776-2.474 2.788-1.577 1.013-3.635 1.013m0-1.992q1.328 0 2.324-.763.996-.764 1.577-2.092t.581-3.055q0-1.726-.58-3.054t-1.578-2.075-2.324-.747q-1.295 0-2.307.747t-1.594 2.075-.58 3.055q0 1.726.58 3.054t1.594 2.09q1.012.765 2.307.765m15.637 2.092q-.896 0-1.693-.266t-1.444-.813q-.648-.548-1.112-1.378t-.714-1.992-.25-2.623l.034-8.466h2.324v8.466q0 1.428.266 2.424t.747 1.593q.481.598 1.112.863.63.266 1.328.266.797 0 1.527-.315.73-.316 1.311-.947.581-.63.913-1.626t.332-2.358v-8.366h2.324v12.815q0 .598.05 1.179t.282 1.178h-2.29q-.166-.398-.233-.78-.066-.382-.083-.78-.016-.398-.016-.764-.366.63-.864 1.13-.498.497-1.112.846-.614.348-1.295.53t-1.444.184m13.214-.332v-15.208h2.49l-.1 4.416-.299-.498q.2-1.03.698-1.825.498-.797 1.195-1.345t1.527-.83 1.726-.282q1.196 0 2.208.414t1.81 1.245l-1.063 1.86-.133.298-.232-.133q-.066-.266-.2-.498-.132-.232-.564-.564-.53-.331-.979-.448t-1.013-.117q-.83 0-1.66.316t-1.51.98-1.08 1.692q-.398 1.03-.398 2.457v8.068Zm43.923 5.51h-2.39v-7.967q-.465.83-1.179 1.46-.713.63-1.593.963t-1.876.332q-1.295 0-2.44-.58t-1.992-1.627q-.847-1.046-1.328-2.507-.482-1.46-.482-3.254 0-1.892.532-3.353.53-1.46 1.444-2.49t2.125-1.56q1.211-.532 2.573-.532.796 0 1.46.182t1.212.515q.548.332.963.83t.714 1.096v-2.225h2.257Zm-6.606-7.303q.863 0 1.61-.35.747-.347 1.328-1.094.58-.747.896-1.943.316-1.195.316-2.855 0-1.56-.283-2.64-.282-1.078-.813-1.726t-1.228-.946q-.698-.3-1.56-.3-.93 0-1.76.35t-1.445 1.062q-.614.714-.962 1.826-.349 1.113-.349 2.64 0 1.394.3 2.49t.862 1.876 1.345 1.195q.78.415 1.743.415m15.87 2.125q-.897 0-1.694-.266t-1.444-.813q-.648-.548-1.112-1.378t-.714-1.992-.25-2.623l.034-8.466h2.324v8.466q0 1.428.266 2.424t.747 1.593q.481.598 1.112.863.63.266 1.328.266.797 0 1.527-.315.73-.316 1.311-.947.581-.63.913-1.626t.332-2.358v-8.366h2.324v12.815q0 .598.05 1.179t.282 1.178h-2.29q-.166-.398-.233-.78-.066-.382-.083-.78-.016-.398-.016-.764-.366.63-.864 1.13-.498.497-1.112.846-.614.348-1.295.53t-1.444.184m18.292-.034q-1.66 0-3.02-.514-1.362-.515-2.34-1.51-.98-.997-1.512-2.474t-.53-3.37q0-1.926.547-3.42t1.494-2.506q.946-1.013 2.224-1.544t2.706-.531q1.295 0 2.423.43 1.13.433 1.96 1.313t1.31 2.24q.482 1.362.482 3.22 0 .267-.017.549t-.05.548h-10.79q.067 1.46.5 2.54t1.127 1.76q.698.68 1.61 1.012t1.943.332q.797 0 1.494-.183.697-.182 1.311-.564t1.112-.946l1.328 1.294q-.63.764-1.444 1.295t-1.776.78-2.092.25m-5.013-9.428h8.333q0-1.063-.282-1.91-.282-.846-.797-1.46-.514-.614-1.228-.93-.714-.315-1.61-.315-.797 0-1.51.265-.715.266-1.312.847t-1.013 1.444-.58 2.059m43.16 9.096h-11.354v-1.925h4.482v-18.23h-4.283v-1.925h6.706v20.153h4.45Zm9.595-22.078h2.656q0 1.992-.033 3.188t-.116 2.008q-.083.814-.183 1.56-.1.748-.2 1.81h-1.593q-.1-1.062-.199-1.81-.1-.746-.183-1.543t-.116-2.01-.033-3.203m12.052 22.078v-22.078h2.622v.233q-.199.2-.249.432t-.05.796v8.134q.598-.93 1.412-1.61.813-.68 1.726-1.062t1.843-.382q1.36 0 2.407.63t1.626 2.026q.581 1.394.581 3.685v9.197h-2.324v-9.13q0-1.594-.365-2.54t-.996-1.361-1.427-.415q-.598 0-1.229.199t-1.212.597q-.58.399-1.045.98t-.73 1.31-.266 1.628v8.732Zm27.323 0h-9.827v-1.925h3.884V176.15h-3.685v-1.926h6.076v13.247h3.552Zm-4.88-18.36q-.697 0-1.195-.497t-.498-1.195q0-.73.481-1.23t1.212-.497q.697 0 1.212.515t.514 1.212-.514 1.195-1.212.498m16.666 18.692q-1.26 0-2.407-.265t-2.158-.797q-1.012-.531-1.876-1.328l1.328-2.258.2-.298.2.132q.065.266.15.548.081.282.446.68.698.698 1.677 1.146t2.507.448q1.228 0 2.075-.298t1.311-.847q.465-.548.465-1.278 0-.498-.2-.88-.199-.382-.647-.714t-1.178-.664-1.793-.664q-1.727-.498-3.02-1.162-1.296-.664-1.993-1.543-.698-.88-.698-2.01 0-1.161.631-2.008t1.876-1.328 3.071-.481q1.062 0 1.926.15.863.149 1.593.448.73.298 1.345.747.614.448 1.178 1.045l-1.36 1.66-.233.266-.166-.166q-.033-.266-.15-.515t-.48-.614q-.765-.597-1.727-.913-.963-.315-1.86-.315-1.328 0-2.29.465-.963.464-.963 1.427 0 .498.348.98t1.28.962q.93.482 2.655.98 1.892.597 3.037 1.212 1.146.614 1.66 1.41.515.797.515 1.893 0 1.262-.68 2.357t-2.076 1.743q-1.394.648-3.519.648m18.194-.1q-1.46 0-2.39-.498t-1.428-1.544-.648-2.64-.083-3.784l.4-10.822 2.49-.3.331-.033.033.232q-.166.233-.282.465t-.183.797l-.299 3.751.1.599-.232 5.477q-.1 2.524.132 3.9.233 1.38.83 1.894.598.514 1.594.514 1.096 0 1.942-.431.847-.431 1.776-1.095l.73 1.892q-1.128.83-2.323 1.229-1.195.398-2.49.398m-7.603-13.445v-1.96h10.923v1.96Zm22.576 13.48q-2.058 0-3.635-1.014t-2.474-2.788q-.896-1.778-.896-4.068 0-2.324.896-4.1.897-1.776 2.474-2.79 1.577-1.012 3.635-1.012t3.635 1.013 2.474 2.789q.896 1.776.896 4.1 0 2.29-.896 4.068-.897 1.776-2.474 2.788-1.577 1.013-3.635 1.013m0-1.993q1.328 0 2.324-.763.996-.764 1.577-2.092t.581-3.055q0-1.726-.58-3.054t-1.578-2.075-2.324-.747q-1.295 0-2.307.747t-1.594 2.075-.58 3.055q0 1.726.58 3.054t1.594 2.09q1.012.765 2.307.765m21.447 1.726h-9.827v-1.925h3.884v-11.321h-3.685v-1.926h6.076v13.247h3.552Zm-4.88-18.36q-.697 0-1.195-.497t-.498-1.195q0-.73.481-1.23t1.212-.497q.697 0 1.212.514t.514 1.213-.514 1.194-1.212.498m12.284 18.394v-15.21h2.49l-.1 4.415-.299-.498q.2-1.03.698-1.825.498-.797 1.195-1.345t1.527-.83 1.726-.282q1.196 0 2.208.414t1.81 1.245l-1.063 1.86-.133.298-.232-.133q-.066-.266-.2-.498-.132-.232-.564-.564-.53-.331-.979-.448t-1.013-.117q-.83 0-1.66.316t-1.51.98-1.08 1.692q-.398 1.03-.398 2.457v8.068Zm21.68.298q-1.66 0-3.022-.514-1.36-.515-2.34-1.51-.98-.997-1.51-2.474t-.532-3.37q0-1.925.548-3.42.547-1.494 1.494-2.506.946-1.013 2.224-1.544t2.706-.53q1.295 0 2.423.43 1.13.432 1.96 1.313t1.31 2.24q.482 1.362.482 3.22 0 .267-.017.549t-.05.548h-10.79q.067 1.46.5 2.54t1.127 1.76q.698.68 1.61 1.012t1.943.332q.797 0 1.494-.183.697-.182 1.311-.564t1.112-.946l1.328 1.294q-.63.764-1.444 1.295t-1.776.78-2.092.25m-5.014-9.428h8.333q0-1.063-.282-1.91-.282-.846-.797-1.46-.514-.614-1.228-.93-.714-.315-1.61-.315-.797 0-1.51.264-.715.266-1.312.847t-1.013 1.445-.58 2.058m37.516 9.428q-1.26 0-2.407-.264t-2.158-.797q-1.012-.531-1.876-1.328l1.328-2.258.2-.299.2.132q.065.266.15.548.081.282.446.68.698.699 1.677 1.147t2.507.447q1.228 0 2.075-.298t1.311-.847q.465-.548.465-1.278 0-.498-.2-.88-.199-.382-.647-.714t-1.178-.663-1.793-.664q-1.727-.498-3.02-1.162-1.296-.664-1.993-1.543-.698-.88-.698-2.01 0-1.161.631-2.008t1.876-1.328 3.071-.481q1.062 0 1.926.15.863.149 1.593.448.73.298 1.345.747.614.448 1.178 1.045l-1.36 1.66-.233.266-.166-.166q-.033-.266-.15-.515t-.48-.614q-.765-.597-1.727-.913-.963-.315-1.86-.315-1.328 0-2.29.465-.963.464-.963 1.427 0 .498.348.98t1.28.962q.93.481 2.655.98 1.892.596 3.037 1.211 1.146.614 1.66 1.41.515.797.515 1.893 0 1.262-.68 2.357t-2.076 1.743q-1.394.648-3.519.648m16.567-.066q-2.058 0-3.635-1.013t-2.474-2.788q-.896-1.777-.896-4.067 0-2.324.896-4.1.897-1.777 2.474-2.79 1.577-1.012 3.635-1.012t3.635 1.013q1.577 1.012 2.474 2.788.896 1.777.896 4.1 0 2.291-.896 4.068-.897 1.776-2.474 2.788-1.577 1.013-3.635 1.013m0-1.992q1.328 0 2.324-.763.996-.764 1.577-2.092t.581-3.055q0-1.726-.58-3.054t-1.578-2.075-2.324-.747q-1.295 0-2.307.747t-1.594 2.075-.58 3.055q0 1.726.58 3.054t1.594 2.091q1.012.764 2.307.764m21.447 1.726h-9.827v-1.925h3.884v-11.32h-3.685v-1.927h6.076v13.248h3.552Zm-4.88-18.36q-.697 0-1.195-.496t-.498-1.195q0-.73.481-1.23t1.212-.498q.697 0 1.212.515t.514 1.212-.514 1.195-1.212.498m18.26 18.593q-1.46 0-2.39-.498t-1.428-1.544-.648-2.64-.083-3.784l.4-10.823 2.49-.3.331-.032.033.232q-.166.233-.282.465t-.183.797l-.299 3.751.1.598-.232 5.478q-.1 2.523.132 3.9.233 1.38.83 1.893.598.515 1.594.515 1.096 0 1.942-.432.847-.43 1.776-1.095l.73 1.892q-1.128.83-2.323 1.23-1.195.397-2.49.397m-7.603-13.446v-1.959h10.923v1.96Zm40.072 13.213h-1.859l-6.009-15.172h2.39l4.914 12.45h-.465l2.69-6.175q.796-1.826 1.278-3.387.481-1.56.713-2.888h2.258q-.266 1.394-.83 3.054t-1.394 3.586Zm20.551 0h-9.827v-1.925h3.884v-11.32h-3.685v-1.927h6.076v13.248h3.552Zm-4.88-18.36q-.697 0-1.195-.497t-.498-1.195q0-.73.481-1.229t1.212-.498q.697 0 1.212.515t.514 1.212-.514 1.195-1.212.498m17.53 18.36h-1.86l-6.009-15.172h2.39l4.914 12.45h-.465l2.69-6.175q.796-1.826 1.278-3.387.481-1.56.713-2.888h2.258q-.266 1.394-.83 3.054t-1.394 3.586Zm14.408.366q-2.59 0-3.984-1.179-1.394-1.178-1.394-3.004 0-1.229.597-2.208.598-.98 1.644-1.66t2.44-1.046 2.955-.365q.564 0 1.145.016.581.017 1.23.067t1.343.15l.067 1.825q-.598-.1-1.212-.15t-1.212-.082q-.598-.034-1.162-.034-1.195 0-2.19.2-.997.2-1.728.597-.73.4-1.128 1.03-.399.63-.399 1.527 0 .697.25 1.178t.68.764q.431.282 1.012.415t1.28.133q1.293 0 2.306-.415t1.726-1.212q.714-.797 1.08-1.959.365-1.162.365-2.656 0-2.258-.532-3.52t-1.577-1.792-2.672-.53q-1.096 0-2.158.414t-1.926 1.278l-1.162-1.527q1.063-1.063 2.457-1.594 1.394-.53 2.955-.53 1.494 0 2.722.364 1.23.365 2.108 1.212t1.362 2.274q.481 1.428.481 3.586v8.067h-2.59v-2.324q-.43.83-1.045 1.362-.615.53-1.312.813t-1.427.398q-.73.117-1.395.117m14.31-.366h-2.325v-15.172h2.324v2.69q.598-.93 1.395-1.61.797-.682 1.76-1.063.962-.382 1.991-.382 1.262 0 2.258.63.996.631 1.594 2.026t.597 3.685v9.197H981.6v-9.13q0-1.594-.365-2.54-.365-.947-.996-1.362t-1.428-.414q-.763 0-1.543.332t-1.445.946-1.079 1.477-.415 1.96Zm21.812.233q-1.46 0-2.39-.498t-1.428-1.544-.648-2.64-.083-3.784l.4-10.823 2.49-.3.331-.032.033.232q-.166.233-.282.465t-.183.797l-.299 3.751.1.598-.232 5.478q-.1 2.523.132 3.9.233 1.38.83 1.893.598.515 1.594.515 1.096 0 1.942-.432.847-.43 1.776-1.095l.73 1.892q-1.128.83-2.323 1.23-1.195.397-2.49.397m-7.603-13.446v-1.959h10.923v1.96Zm23.306 13.545q-1.66 0-3.02-.514-1.362-.515-2.34-1.51-.98-.997-1.512-2.474t-.53-3.37q0-1.926.547-3.42t1.494-2.506q.946-1.013 2.224-1.544t2.706-.53q1.295 0 2.423.43 1.13.432 1.96 1.312t1.31 2.24q.482 1.362.482 3.221 0 .266-.017.548t-.05.548h-10.79q.067 1.46.5 2.54t1.127 1.76q.698.68 1.61 1.012t1.943.332q.797 0 1.494-.183.697-.182 1.311-.564t1.112-.946l1.328 1.294q-.63.764-1.444 1.295t-1.776.78-2.092.25m-5.013-9.428h8.333q0-1.063-.282-1.91-.282-.846-.797-1.46-.514-.614-1.228-.93-.714-.315-1.61-.315-.797 0-1.51.265-.715.266-1.312.847t-1.013 1.444-.58 2.06M750.54 82.98h-7.489l-1.852-53.27h1.318a2.04 2.04 0 0 0 1.87-2.906h7.472V15.768L703.55-.136l-48.293 15.904v11.037h7.457a2.04 2.04 0 0 0 1.884 2.905h1.303l-1.852 53.27h-7.49l-6.907 9.42h107.796Zm-72.597 0-1.852-53.27h1.334a2.04 2.04 0 0 0 1.87-2.906h5.117a2.072 2.072 0 0 0 1.884 2.905h1.32l-1.854 53.27Zm25.607 0h-3.91l-1.852-53.27h1.335a2.04 2.04 0 0 0 1.868-2.906h5.134a2.04 2.04 0 0 0 1.868 2.905h1.32l-1.854 53.27Zm17.788 0L719.5 29.71h1.32a2.04 2.04 0 0 0 1.852-2.906h5.15a2.04 2.04 0 0 0 1.868 2.905h1.318l-1.868 53.27Z"/></g><path fill="transparent" stroke="transparent" d="M471 0h558v198H471z"/></g></svg>