<svg xmlns="http://www.w3.org/2000/svg" xml:space="preserve" width="1500" height="1500" data-id="lg_FinKTXNh8tw4qgcvNm" data-version="1" viewBox="0 0 1500 1500"><path fill="#fff" stroke="transparent" d="M0 0h1500v1500H0z"/><g data-padding="20"><g transform="translate(-571.429 -570.629)scale(1.71908)"><rect width="372.036" height="388.72" x="161.192" y="144.18" fill="none" rx="0" ry="0" transform="translate(268.7 280.72)scale(1.44)"/><path fill="#ff851b" d="M739.853 923.104h-68.37V764.59h-68.358v158.515h-68.357v-212.01q0-42.107-5.702-58.696-5.688-16.603-24.02-40.377l59.444-41.602q15.854 10.397 27.245 38.39 11.39 27.98 11.39 67.608v28.728h68.357V576.352h68.371Zm47.074-159.02V576.337h68.357v192.7q0 27.735 3.211 41.861 3.226 14.112 14.616 30.716 11.39 16.588 16.344 16.588t16.36-16.588q11.39-16.604 14.6-30.716 3.226-14.126 3.226-41.86v-57.96q0-41.602-5.703-57.96Q912.25 636.774 893.92 613l59.443-42.595q15.855 10.397 27.245 40.363t11.39 71.583v81.734q0 38.635-7.43 63.403t-42.35 63.16-52.762 38.39q-17.827 0-52.747-38.39t-42.35-63.16-7.43-63.403"/></g><path fill="transparent" stroke="transparent" stroke-width="1.786" d="M271.429 250h957.142v1000H271.43z"/></g></svg>